<svg width="3440" height="400" viewBox="0 0 3440 400" fill="none" xmlns="http://www.w3.org/2000/svg">
<g clip-path="url(#clip0_442_5400)">
<path d="M393.854 271.023C419.684 281.002 473.584 298.265 537.409 298.266C602.174 298.266 652.841 283.233 676.047 274.858C649.459 325.365 596.689 359.776 535.928 359.776C473.64 359.776 419.749 323.616 393.854 271.023ZM680.084 134.068C689.265 154.252 694.386 176.696 694.386 200.345C694.386 200.533 694.383 200.722 694.382 200.91C681.437 200.584 648.665 202.688 584.509 222.965C555.187 232.232 551.791 236.334 511.045 242.685C461.491 250.409 402.752 247.381 383.544 244.211C379.588 230.275 377.469 215.559 377.469 200.345C377.469 177.009 382.451 154.844 391.405 134.869C410.153 138.602 464.324 147.96 536.341 147.961C614.285 147.961 667.307 136.997 680.084 134.068ZM535.928 40.9141C582.469 40.9141 624.325 61.1019 653.315 93.2496C634.03 96.6409 591.844 102.7 536.341 102.7C485.543 102.7 441.718 97.623 417.722 94.1637C446.74 61.4851 488.946 40.9141 535.928 40.9141Z" fill="url(#paint0_linear_442_5400)"/>
<path d="M2917.78 38C2940.91 38 2962.67 41.9529 2983.06 49.8574C3003.45 57.4579 3020.64 69.0108 3034.64 84.5156L3013.19 105.948C3000.1 92.5719 2985.65 82.995 2969.82 77.2188C2954 71.1386 2936.96 68.0987 2918.7 68.0986C2899.52 68.0986 2881.72 71.4435 2865.29 78.1318C2848.85 84.5162 2834.55 93.7878 2822.38 105.948C2810.21 117.805 2800.62 131.791 2793.62 147.904C2786.93 163.713 2783.58 181.195 2783.58 200.348C2783.58 219.501 2786.93 237.134 2793.62 253.247C2800.62 269.056 2810.21 283.041 2822.38 295.201C2834.55 307.058 2848.85 316.331 2865.29 323.02C2881.72 329.404 2899.52 332.597 2918.7 332.597C2936.96 332.597 2954 329.556 2969.82 323.476C2985.65 317.395 3000.1 307.666 3013.19 294.29L3034.64 315.723C3020.64 331.227 3003.45 342.933 2983.06 350.838C2962.67 358.742 2940.76 362.694 2917.33 362.694C2893.28 362.694 2871.07 358.742 2850.68 350.838C2830.29 342.629 2812.64 331.228 2797.73 316.635C2782.82 302.042 2771.1 284.866 2762.58 265.104C2754.36 245.343 2750.25 223.757 2750.25 200.348C2750.25 176.938 2754.36 155.351 2762.58 135.59C2771.1 115.829 2782.82 98.6524 2797.73 84.0596C2812.94 69.467 2830.75 58.2179 2851.14 50.3135C2871.53 42.1051 2893.74 38.0001 2917.78 38ZM996.154 299.634V40.7363H1029.48V359.958H1001.63L796.214 101.099V359.958H762.435V40.7363H790.28L996.154 299.634ZM1380.27 69.9219H1194.94V195.331H1360.19V224.516H1194.94V359.958H1161.16V40.7363H1380.27V69.9219ZM1511.2 359.958H1477.42V40.7363H1511.2V359.958ZM1772.65 40.7363C1806.74 40.7363 1836.56 47.5769 1862.12 61.2578C1887.99 74.6346 1908.08 93.3314 1922.38 117.349C1936.68 141.366 1943.83 169.034 1943.83 200.348C1943.83 231.662 1936.68 259.328 1922.38 283.346C1908.08 307.363 1887.99 326.213 1862.12 339.894C1836.56 353.27 1806.74 359.958 1772.65 359.958H1642.55V209.468H1676.33V330.772H1770.83C1799.13 330.772 1823.63 325.3 1844.32 314.355C1865.32 303.107 1881.6 287.753 1893.16 268.296C1904.73 248.535 1910.51 225.885 1910.51 200.348C1910.51 174.506 1904.73 151.857 1893.16 132.399C1881.6 112.942 1865.32 97.7406 1844.32 86.7959C1823.63 75.5472 1799.13 69.9219 1770.83 69.9219H1642.55V40.7363H1772.65ZM2266.19 69.9219H2080.86V183.474H2246.1V212.205H2080.86V330.772H2273.04V359.958H2047.08V40.7363H2266.19V69.9219ZM2613.55 299.634V40.7363H2646.87V359.958H2619.02L2413.61 101.099V359.958H2379.83V40.7363H2407.67L2613.55 299.634ZM3353.15 69.9219H3167.82V183.474H3333.07V212.205H3167.82V330.772H3360V359.958H3134.04V40.7363H3353.15V69.9219ZM113.779 233.014L301.395 40.2803H340.195L202.042 184.995L349.781 359.502H309.611L179.181 209.354L113.779 275.533V359.502H80V40.2803H113.779V233.014Z" fill="url(#paint1_linear_442_5400)"/>
</g>
<defs>
<linearGradient id="paint0_linear_442_5400" x1="560.828" y1="40.9141" x2="489.831" y2="359.593" gradientUnits="userSpaceOnUse">
<stop stop-color="#FFCB49"/>
<stop offset="1" stop-color="#FF960C"/>
</linearGradient>
<linearGradient id="paint1_linear_442_5400" x1="3.30349" y1="201.163" x2="3976.61" y2="287.122" gradientUnits="userSpaceOnUse">
<stop stop-color="#139CC7"/>
<stop offset="0.359639" stop-color="#80D2E0"/>
<stop offset="0.92984" stop-color="#139CC7"/>
</linearGradient>
<clipPath id="clip0_442_5400">
<rect width="3440" height="400" fill="white"/>
</clipPath>
</defs>
</svg>
