<svg width="3440" height="400" viewBox="0 0 3440 400" fill="none" xmlns="http://www.w3.org/2000/svg">
<g clip-path="url(#clip0_443_5499)">
<path d="M394.39 270.931C420.227 280.945 474.14 298.27 537.982 298.27C602.764 298.27 653.444 283.184 676.656 274.779C650.061 325.467 597.277 360 536.5 360C474.197 360 420.291 323.711 394.39 270.931ZM680.693 133.487C689.878 153.742 695 176.267 695 200C695 200.189 694.996 200.378 694.996 200.567C682.047 200.24 649.267 202.351 585.094 222.701C555.765 232.001 552.368 236.117 511.611 242.491C462.045 250.243 403.289 247.204 384.076 244.022C380.12 230.036 378 215.268 378 200C378 176.581 382.983 154.337 391.94 134.29C410.692 138.036 464.878 147.429 536.914 147.429C614.878 147.429 667.914 136.425 680.693 133.487ZM536.5 40C583.054 40 624.92 60.2599 653.918 92.5223C634.628 95.9257 592.431 102.007 536.914 102.007C486.102 102.007 442.266 96.9113 418.264 93.4397C447.289 60.6445 489.507 40 536.5 40Z" fill="url(#paint0_linear_443_5499)"/>
<path d="M2917.78 37C2940.91 37 2962.67 40.9568 2983.06 48.8688C3003.45 56.4765 3020.64 68.04 3034.64 83.5592L3013.19 105.012C3000.1 91.6234 2985.65 82.0381 2969.82 76.2564C2954 70.1705 2936.95 67.1273 2918.7 67.1272C2899.52 67.1273 2881.72 70.475 2865.29 77.1696C2848.85 83.56 2834.55 92.8406 2822.38 105.012C2810.21 116.88 2800.62 130.879 2793.62 147.007C2786.93 162.831 2783.58 180.329 2783.58 199.501C2783.58 218.672 2786.93 236.322 2793.62 252.45C2800.62 268.273 2810.21 282.271 2822.38 294.443C2834.55 306.31 2848.85 315.592 2865.29 322.287C2881.72 328.677 2899.52 331.874 2918.7 331.874C2936.95 331.874 2954 328.831 2969.82 322.745C2985.65 316.659 3000.1 306.92 3013.19 293.531L3034.64 314.984C3020.64 330.504 3003.45 342.221 2983.06 350.133C2962.67 358.045 2940.76 362 2917.33 362C2893.28 362 2871.07 358.044 2850.68 350.133C2830.29 341.916 2812.64 330.504 2797.73 315.897C2782.82 301.291 2771.1 284.098 2762.58 264.318C2754.36 244.539 2750.25 222.932 2750.25 199.501C2750.25 176.069 2754.36 154.462 2762.58 134.682C2771.1 114.902 2782.82 97.7091 2797.73 83.1026C2812.94 68.4963 2830.75 57.2373 2851.14 49.3254C2871.52 41.1093 2893.74 37.0001 2917.78 37Z" fill="url(#paint1_linear_443_5499)"/>
<path d="M996.155 298.881V39.7396H1029.48V359.262H1001.63L796.214 100.157V359.262H762.434V39.7396H790.281L996.155 298.881Z" fill="url(#paint2_linear_443_5499)"/>
<path d="M1380.27 68.9522H1194.94V194.478H1360.19V223.692H1194.94V359.262H1161.16V39.7396H1380.27V68.9522Z" fill="url(#paint3_linear_443_5499)"/>
<path d="M1511.2 359.262H1477.42V39.7396H1511.2V359.262Z" fill="url(#paint4_linear_443_5499)"/>
<path d="M1772.65 39.7396C1806.74 39.7396 1836.56 46.586 1862.12 60.2796C1887.99 73.669 1908.08 92.3832 1922.38 116.423C1936.68 140.463 1943.83 168.157 1943.83 199.501C1943.83 230.844 1936.68 258.537 1922.38 282.577C1908.08 306.617 1887.99 325.483 1862.12 339.177C1836.56 352.566 1806.74 359.262 1772.65 359.262H1642.56V208.63H1676.33V330.048H1770.83C1799.13 330.048 1823.63 324.571 1844.32 313.616C1865.32 302.356 1881.6 286.987 1893.16 267.512C1904.73 247.732 1910.51 225.062 1910.51 199.501C1910.51 173.635 1904.73 150.964 1893.16 131.488C1881.6 112.013 1865.32 96.7972 1844.32 85.8422C1823.63 74.5829 1799.13 68.9522 1770.83 68.9522H1676.33H1642.56V39.7396H1772.65Z" fill="url(#paint5_linear_443_5499)"/>
<path d="M2266.19 68.9522H2080.86V182.611H2246.1V211.368H2080.86V330.048H2273.04V359.262H2047.08V39.7396H2266.19V68.9522Z" fill="url(#paint6_linear_443_5499)"/>
<path d="M2613.55 298.881V39.7396H2646.87V359.262H2619.02L2413.61 100.157V359.262H2379.83V39.7396H2407.67L2613.55 298.881Z" fill="url(#paint7_linear_443_5499)"/>
<path d="M3353.15 68.9522H3167.82V182.611H3333.07V211.368H3167.82V330.048H3360V359.262H3134.04V39.7396H3353.15V68.9522Z" fill="url(#paint8_linear_443_5499)"/>
<path d="M113.779 232.196L301.394 39.2816H340.195L202.042 184.134L349.781 358.804H309.611L179.181 208.515L113.779 274.756V358.804H80V39.2816H113.779V232.196Z" fill="url(#paint9_linear_443_5499)"/>
</g>
<defs>
<linearGradient id="paint0_linear_443_5499" x1="561.407" y1="40" x2="489.943" y2="359.716" gradientUnits="userSpaceOnUse">
<stop stop-color="#FFCB49"/>
<stop offset="1" stop-color="#FF960C"/>
</linearGradient>
<linearGradient id="paint1_linear_443_5499" x1="3.30349" y1="200.317" x2="3976.61" y2="286.195" gradientUnits="userSpaceOnUse">
<stop stop-color="#1FACD0"/>
<stop offset="0.359639" stop-color="#B9E6EB"/>
<stop offset="0.92984" stop-color="#0CA1CB"/>
</linearGradient>
<linearGradient id="paint2_linear_443_5499" x1="3.30349" y1="200.317" x2="3976.61" y2="286.195" gradientUnits="userSpaceOnUse">
<stop stop-color="#1FACD0"/>
<stop offset="0.359639" stop-color="#B9E6EB"/>
<stop offset="0.92984" stop-color="#0CA1CB"/>
</linearGradient>
<linearGradient id="paint3_linear_443_5499" x1="3.30349" y1="200.317" x2="3976.61" y2="286.195" gradientUnits="userSpaceOnUse">
<stop stop-color="#1FACD0"/>
<stop offset="0.359639" stop-color="#B9E6EB"/>
<stop offset="0.92984" stop-color="#0CA1CB"/>
</linearGradient>
<linearGradient id="paint4_linear_443_5499" x1="3.30349" y1="200.317" x2="3976.61" y2="286.195" gradientUnits="userSpaceOnUse">
<stop stop-color="#1FACD0"/>
<stop offset="0.359639" stop-color="#B9E6EB"/>
<stop offset="0.92984" stop-color="#0CA1CB"/>
</linearGradient>
<linearGradient id="paint5_linear_443_5499" x1="3.30349" y1="200.317" x2="3976.61" y2="286.195" gradientUnits="userSpaceOnUse">
<stop stop-color="#1FACD0"/>
<stop offset="0.359639" stop-color="#B9E6EB"/>
<stop offset="0.92984" stop-color="#0CA1CB"/>
</linearGradient>
<linearGradient id="paint6_linear_443_5499" x1="3.30349" y1="200.317" x2="3976.61" y2="286.195" gradientUnits="userSpaceOnUse">
<stop stop-color="#1FACD0"/>
<stop offset="0.359639" stop-color="#B9E6EB"/>
<stop offset="0.92984" stop-color="#0CA1CB"/>
</linearGradient>
<linearGradient id="paint7_linear_443_5499" x1="3.30349" y1="200.317" x2="3976.61" y2="286.195" gradientUnits="userSpaceOnUse">
<stop stop-color="#1FACD0"/>
<stop offset="0.359639" stop-color="#B9E6EB"/>
<stop offset="0.92984" stop-color="#0CA1CB"/>
</linearGradient>
<linearGradient id="paint8_linear_443_5499" x1="3.30349" y1="200.317" x2="3976.61" y2="286.195" gradientUnits="userSpaceOnUse">
<stop stop-color="#1FACD0"/>
<stop offset="0.359639" stop-color="#B9E6EB"/>
<stop offset="0.92984" stop-color="#0CA1CB"/>
</linearGradient>
<linearGradient id="paint9_linear_443_5499" x1="3.30349" y1="200.317" x2="3976.61" y2="286.195" gradientUnits="userSpaceOnUse">
<stop stop-color="#1FACD0"/>
<stop offset="0.359639" stop-color="#B9E6EB"/>
<stop offset="0.92984" stop-color="#0CA1CB"/>
</linearGradient>
<clipPath id="clip0_443_5499">
<rect width="3440" height="400" fill="white"/>
</clipPath>
</defs>
</svg>
