<svg xmlns="http://www.w3.org/2000/svg" viewBox="0 0 1600 700" role="img" aria-label="From SBOM to SBOD">
  <defs>
    <linearGradient id="pillarFill" x1="0%" y1="0%" x2="0%" y2="100%">
      <stop offset="0%" stop-color="#ffffff"/>
      <stop offset="100%" stop-color="#f3f4f6"/>
    </linearGradient>
    <filter id="softShadow" x="-20%" y="-20%" width="140%" height="140%">
      <feGaussianBlur in="SourceAlpha" stdDeviation="6"/>
      <feOffset dx="0" dy="4" result="offsetblur"/>
      <feComponentTransfer><feFuncA type="linear" slope="0.16"/></feComponentTransfer>
      <feMerge><feMergeNode/><feMergeNode in="SourceGraphic"/></feMerge>
    </filter>
    <linearGradient id="brandFill" x1="0%" y1="0%" x2="100%" y2="0%">
      <stop offset="0%" stop-color="#5cd6ff"/>
      <stop offset="100%" stop-color="#0f6bff"/>
    </linearGradient>

    <symbol id="art-image" viewBox="0 0 24 24"><g fill="none" stroke="#0f6bff" stroke-width="1.6" stroke-linecap="round" stroke-linejoin="round"><rect x="3" y="3" width="18" height="18" rx="2"/><circle cx="9" cy="9" r="2"/><path d="M21 15l-5 -5l-9 9"/></g></symbol>
    <symbol id="art-helm" viewBox="0 0 24 24"><g fill="none" stroke="#0f6bff" stroke-width="1.6" stroke-linecap="round" stroke-linejoin="round"><circle cx="12" cy="12" r="9"/><circle cx="12" cy="12" r="2"/><path d="M12 3v3"/><path d="M12 18v3"/><path d="M3 12h3"/><path d="M18 12h3"/></g></symbol>
    <symbol id="art-binary" viewBox="0 0 24 24"><g fill="none" stroke="#0f6bff" stroke-width="1.6" stroke-linecap="round" stroke-linejoin="round"><path d="M14 3v4a1 1 0 0 0 1 1h4"/><path d="M5 3h9l5 5v11a2 2 0 0 1 -2 2h-12a2 2 0 0 1 -2 -2v-14a2 2 0 0 1 2 -2"/><path d="M9 12h2v4"/><path d="M14 12h2v4"/></g></symbol>
    <symbol id="art-config" viewBox="0 0 24 24"><g fill="none" stroke="#0f6bff" stroke-width="1.6" stroke-linecap="round" stroke-linejoin="round"><path d="M14 3v4a1 1 0 0 0 1 1h4"/><path d="M5 3h9l5 5v11a2 2 0 0 1 -2 2h-12a2 2 0 0 1 -2 -2v-14a2 2 0 0 1 2 -2"/><path d="M9 13h6"/><path d="M9 17h6"/></g></symbol>
    <!-- ico-lock has no fixed stroke so each <use> can override (white inside blue seal). -->
    <symbol id="ico-lock" viewBox="0 0 24 24"><g fill="none" stroke="currentColor" stroke-width="1.6" stroke-linecap="round" stroke-linejoin="round"><path d="M5 13a2 2 0 0 1 2 -2h10a2 2 0 0 1 2 2v6a2 2 0 0 1 -2 2h-10a2 2 0 0 1 -2 -2v-6"/><path d="M11 16a1 1 0 1 0 2 0a1 1 0 0 0 -2 0"/><path d="M8 11v-4a4 4 0 1 1 8 0v4"/></g></symbol>
  </defs>

  <g font-family="Aptos, Inter, sans-serif">

    <!-- LEFT: SBOM panel -->
    <g transform="translate(80,100)">
      <rect width="600" height="500" rx="18" fill="url(#pillarFill)" stroke="#e8f0ff" stroke-width="2" filter="url(#softShadow)"/>
      <text x="40" y="60" font-size="22" font-weight="700" fill="#6b7280" letter-spacing="3">SBOM</text>
      <text x="40" y="92" font-size="34" font-weight="700" fill="#0a3a99">What's inside.</text>

      <!-- Application box with deps -->
      <g transform="translate(40,140)">
        <rect width="520" height="320" rx="12" fill="#ffffff" stroke="#cbd5e1" stroke-width="2" stroke-dasharray="0"/>
        <text x="20" y="40" font-size="16" font-weight="700" fill="#0a3a99">Application</text>
        <g font-size="15" fill="#6b7280">
          <text x="20" y="80">▸ libssl 3.1.4</text>
          <text x="20" y="108">▸ openjdk 21.0.2</text>
          <text x="20" y="136">▸ pyyaml 6.0.1</text>
          <text x="20" y="164">▸ glibc 2.38</text>
          <text x="20" y="192">▸ curl 8.5.0</text>
          <text x="20" y="220">▸ zlib 1.3.1</text>
          <text x="20" y="248">▸ ...</text>
        </g>
        <text x="260" y="290" text-anchor="middle" font-size="13" font-style="italic" fill="#9ca3af">Lists internal dependencies. Says nothing about how to ship them.</text>
      </g>
    </g>

    <!-- Big arrow in the middle -->
    <g transform="translate(700,330)">
      <line x1="0" y1="20" x2="180" y2="20" stroke="url(#brandFill)" stroke-width="4"/>
      <polygon points="180,20 158,8 158,32" fill="#0f6bff"/>
    </g>

    <!-- RIGHT: SBOD panel -->
    <g transform="translate(900,100)">
      <rect width="620" height="500" rx="18" fill="url(#pillarFill)" stroke="#e8f0ff" stroke-width="2" filter="url(#softShadow)"/>
      <text x="40" y="60" font-size="22" font-weight="700" fill="#0f6bff" letter-spacing="3">SBOD</text>
      <text x="40" y="92" font-size="34" font-weight="700" fill="#0a3a99">Everything you ship — signed.</text>

      <!-- Signed envelope: artifacts grouped, signature seal -->
      <g transform="translate(40,140)">
        <rect width="540" height="320" rx="12" fill="#e8f0ff" stroke="#0f6bff" stroke-width="2.5" stroke-dasharray="0"/>

        <!-- Artifact tiles inside -->
        <g>
          <g transform="translate(30,50)">
            <rect width="110" height="100" rx="10" fill="#ffffff" stroke="#cbe2ff" stroke-width="2"/>
            <use href="#art-image" x="39" y="14" width="32" height="32"/>
            <text x="55" y="74" text-anchor="middle" font-size="13" font-weight="600" fill="#0a3a99">Image</text>
          </g>
          <g transform="translate(160,50)">
            <rect width="110" height="100" rx="10" fill="#ffffff" stroke="#cbe2ff" stroke-width="2"/>
            <use href="#art-helm" x="39" y="14" width="32" height="32"/>
            <text x="55" y="74" text-anchor="middle" font-size="13" font-weight="600" fill="#0a3a99">Helm chart</text>
          </g>
          <g transform="translate(290,50)">
            <rect width="110" height="100" rx="10" fill="#ffffff" stroke="#cbe2ff" stroke-width="2"/>
            <use href="#art-binary" x="39" y="14" width="32" height="32"/>
            <text x="55" y="74" text-anchor="middle" font-size="13" font-weight="600" fill="#0a3a99">Binary</text>
          </g>
          <g transform="translate(420,50)">
            <rect width="110" height="100" rx="10" fill="#ffffff" stroke="#cbe2ff" stroke-width="2"/>
            <use href="#art-config" x="39" y="14" width="32" height="32"/>
            <text x="55" y="74" text-anchor="middle" font-size="13" font-weight="600" fill="#0a3a99">Config</text>
          </g>
        </g>

        <!-- Signature seal -->
        <g transform="translate(220,180)">
          <circle cx="50" cy="50" r="48" fill="#0f6bff"/>
          <use href="#ico-lock" x="20" y="20" width="60" height="60" color="#ffffff"/>
          <text x="50" y="118" text-anchor="middle" font-size="13" font-weight="700" fill="#0a3a99" letter-spacing="2">SIGNED</text>
        </g>

        <text x="270" y="318" text-anchor="middle" font-size="13" font-style="italic" fill="#0a3a99">Includes everything needed to deploy + how to access it.</text>
      </g>
    </g>
  </g>
</svg>
