<?xml version="1.0" encoding="UTF-8"?>
<svg xmlns="http://www.w3.org/2000/svg" viewBox="0 0 1920 540" font-family="Aptos, Inter, system-ui, sans-serif">
  <defs>
    <style>
      .step-card { fill: #FFFFFF; stroke: none; filter: url(#card-shadow); }
      .step-card-bg { fill: #F3F4F6; stroke: none; }
      .step-rule { fill: #0F6BFF; }
      .target-card { fill: #0A3A99; stroke: none; }
      .step-label { fill: #0A3A99; font-size: 32px; font-weight: 700; letter-spacing: 0.6px; }
      .step-body { fill: #333333; font-size: 22px; font-weight: 400; }
      .target-label { fill: #0A3A99; font-size: 32px; font-weight: 700; letter-spacing: 0.6px; }
      .target-body { fill: #333333; font-size: 22px; font-weight: 400; }
      .arrow { stroke: #6B7280; stroke-width: 2.5; fill: none; }
      .arrow-head { fill: #6B7280; }
      .icon { stroke: #0F6BFF; stroke-width: 2.4; fill: none; stroke-linecap: round; stroke-linejoin: round; }
      .cloud-fill { fill: #0F6BFF; stroke: none; }
      .lock-stroke { stroke: #FFFFFF; stroke-width: 4; fill: none; stroke-linecap: round; stroke-linejoin: round; }
      .lock-fill { fill: #FFFFFF; stroke: none; }
    </style>
    <!-- Drop shadow used on every card. Soft, low-distance, brand-neutral grey. -->
    <filter id="card-shadow" x="-10%" y="-10%" width="120%" height="125%">
      <feGaussianBlur in="SourceAlpha" stdDeviation="3"/>
      <feOffset dx="0" dy="3" result="offsetblur"/>
      <feComponentTransfer><feFuncA type="linear" slope="0.30"/></feComponentTransfer>
      <feMerge>
        <feMergeNode/>
        <feMergeNode in="SourceGraphic"/>
      </feMerge>
    </filter>
    <marker id="arrowhead" markerWidth="10" markerHeight="10" refX="9" refY="5" orient="auto">
      <polygon points="0 0, 10 5, 0 10" class="arrow-head"/>
    </marker>
  </defs>

  <!-- Layout: 4 step cards (380 wide) + 3 inter-card gaps (28) + arrow gap (44) + target card (~360).
       Total: 4*380 + 3*28 + 44 + 360 = 1988 — slightly wide; balanced by reducing target spacing.
       Use cards 360 wide, gaps 30, target gap 50, target 360 → 4*360+3*30+50+360 = 1940 ≈ canvas.
       Centred: (1920-1940)/2 = -10 → start at x=10. Card height 400. y=70 vertically centres in 540. -->

  <!-- Card 1: Pack -->
  <g transform="translate(10, 70)">
    <g class="step-card">
      <rect width="360" height="400" rx="14" ry="14" class="step-card-bg"/>
    </g>
    <rect width="360" height="4" class="step-rule"/>
    <!-- Pack icon: open box -->
    <g transform="translate(32, 36)">
      <path class="icon" d="M 5 18 L 30 5 L 55 18 L 55 48 L 30 60 L 5 48 Z"/>
      <path class="icon" d="M 5 18 L 30 30 L 55 18"/>
      <line class="icon" x1="30" y1="30" x2="30" y2="60"/>
    </g>
    <text x="32" y="170" class="step-label">PACK</text>
    <text x="32" y="216" class="step-body"><tspan x="32" dy="0">Describe and bundle your</tspan><tspan x="32" dy="32">software into a component</tspan><tspan x="32" dy="32">descriptor. One source</tspan><tspan x="32" dy="32">of truth.</tspan></text>
  </g>

  <!-- Arrow 1 -->
  <line x1="380" y1="270" x2="406" y2="270" class="arrow" marker-end="url(#arrowhead)"/>

  <!-- Card 2: Sign -->
  <g transform="translate(420, 70)">
    <g class="step-card">
      <rect width="360" height="400" rx="14" ry="14" class="step-card-bg"/>
    </g>
    <rect width="360" height="4" class="step-rule"/>
    <!-- Sign icon: shield with checkmark -->
    <g transform="translate(32, 36)">
      <path class="icon" d="M 30 5 L 55 14 L 55 32 C 55 46 45 56 30 60 C 15 56 5 46 5 32 L 5 14 Z"/>
      <path class="icon" d="M 19 32 L 27 40 L 41 24"/>
    </g>
    <text x="32" y="170" class="step-label">SIGN</text>
    <text x="32" y="216" class="step-body"><tspan x="32" dy="0">One signature covers every</tspan><tspan x="32" dy="32">artifact by digest.</tspan><tspan x="32" dy="32">RSA · GPG · Sigstore</tspan><tspan x="32" dy="32">keyless.</tspan></text>
  </g>

  <!-- Arrow 2 -->
  <line x1="790" y1="270" x2="816" y2="270" class="arrow" marker-end="url(#arrowhead)"/>

  <!-- Card 3: Transport -->
  <g transform="translate(830, 70)">
    <g class="step-card">
      <rect width="360" height="400" rx="14" ry="14" class="step-card-bg"/>
    </g>
    <rect width="360" height="4" class="step-rule"/>
    <!-- Transport icon: globe with meridians -->
    <g transform="translate(32, 36)">
      <circle class="icon" cx="30" cy="32" r="25"/>
      <path class="icon" d="M 5 32 L 55 32"/>
      <path class="icon" d="M 30 7 C 18 19 18 45 30 57"/>
      <path class="icon" d="M 30 7 C 42 19 42 45 30 57"/>
    </g>
    <text x="32" y="170" class="step-label">TRANSPORT</text>
    <text x="32" y="216" class="step-body"><tspan x="32" dy="0">Across any boundary.</tspan><tspan x="32" dy="32">Registry to registry, or</tspan><tspan x="32" dy="32">registry to archive —</tspan><tspan x="32" dy="32">signatures travel intact.</tspan></text>
  </g>

  <!-- Arrow 3 -->
  <line x1="1200" y1="270" x2="1226" y2="270" class="arrow" marker-end="url(#arrowhead)"/>

  <!-- Card 4: Deploy -->
  <g transform="translate(1240, 70)">
    <g class="step-card">
      <rect width="360" height="400" rx="14" ry="14" class="step-card-bg"/>
    </g>
    <rect width="360" height="4" class="step-rule"/>
    <!-- Deploy icon: rocket -->
    <g transform="translate(32, 36)">
      <path class="icon" d="M 30 7 C 38 7 42 17 42 27 L 42 48 C 42 50 40 52 38 52 L 22 52 C 20 52 18 50 18 48 L 18 27 C 18 17 22 7 30 7 Z"/>
      <circle class="icon" cx="30" cy="24" r="5" fill="#FFFFFF"/>
      <path class="icon" d="M 18 40 L 8 50 L 8 56 L 18 52 Z"/>
      <path class="icon" d="M 42 40 L 52 50 L 52 56 L 42 52 Z"/>
      <path class="icon" d="M 25 52 L 27 60 L 30 56 L 33 60 L 35 52"/>
    </g>
    <text x="32" y="170" class="step-label">DEPLOY</text>
    <text x="32" y="216" class="step-body"><tspan x="32" dy="0">Bring your own GitOps</tspan><tspan x="32" dy="32">(Argo · Flux · KRO) or use</tspan><tspan x="32" dy="32">OCM's Kubernetes</tspan><tspan x="32" dy="32">controllers.</tspan></text>
  </g>

  <!-- Big arrow to target -->
  <line x1="1610" y1="270" x2="1660" y2="270" class="arrow" stroke-width="3" marker-end="url(#arrowhead)"/>

  <!-- Target: Sovereign Cloud (cloud-lock, no card) -->
  <g transform="translate(1670, 60)">
    <g transform="translate(8, 50)">
      <path class="cloud-fill" d="M 56 130 C 28 130 4 110 4 80 C 4 54 26 32 54 36 C 64 14 92 6 112 22 C 132 6 162 14 174 38 C 200 36 222 56 222 80 C 222 108 198 130 174 130 Z"/>
      <!-- Lock shackle -->
      <path class="lock-stroke" d="M 99 66 L 99 54 C 99 42 105 36 113 36 C 121 36 127 42 127 54 L 127 66"/>
      <!-- Lock body -->
      <rect class="lock-fill" x="91" y="66" width="44" height="32" rx="4" ry="4"/>
      <!-- Keyhole -->
      <circle cx="113" cy="78" r="3" fill="#0F6BFF"/>
      <rect x="111" y="78" width="4" height="10" fill="#0F6BFF"/>
    </g>
    <text x="124" y="252" text-anchor="middle" class="target-label">SOVEREIGN</text>
    <text x="124" y="284" text-anchor="middle" class="target-label">CLOUD</text>
    <text x="124" y="320" text-anchor="middle" class="target-body">Verify at destination.</text>
    <text x="124" y="354" text-anchor="middle" class="target-body">No callback upstream.</text>
  </g>
</svg>
