<?xml version="1.0" encoding="UTF-8"?>
<svg xmlns="http://www.w3.org/2000/svg" viewBox="0 0 1920 540" font-family="Aptos, Inter, system-ui, sans-serif">
  <defs>
    <style>
      .step-card { fill: #F3F4F6; stroke: none; }
      .step-rule { fill: #0F6BFF; }
      .target-card { fill: #0A3A99; stroke: none; }
      .step-label { fill: #0A3A99; font-size: 24px; font-weight: 700; letter-spacing: 0.6px; }
      .step-body { fill: #333333; font-size: 14px; font-weight: 400; }
      .target-label { fill: #0A3A99; font-size: 24px; font-weight: 700; letter-spacing: 0.6px; }
      .target-body { fill: #333333; font-size: 14px; font-weight: 400; }
      .arrow { stroke: #6B7280; stroke-width: 2; fill: none; }
      .arrow-head { fill: #6B7280; }
      .icon { stroke: #0F6BFF; stroke-width: 2; fill: none; stroke-linecap: round; stroke-linejoin: round; }
      .cloud-fill { fill: #0F6BFF; stroke: none; }
      .lock-stroke { stroke: #FFFFFF; stroke-width: 4; fill: none; stroke-linecap: round; stroke-linejoin: round; }
      .lock-fill { fill: #FFFFFF; stroke: none; }
    </style>
    <marker id="arrowhead" markerWidth="10" markerHeight="10" refX="9" refY="5" orient="auto">
      <polygon points="0 0, 10 5, 0 10" class="arrow-head"/>
    </marker>
  </defs>

  <!-- Card width: 320px, gap: 32px between step cards, 60px before target. Total: 4*320 + 3*32 + 60 + 360 = 1796. Centered: (1920-1796)/2 = 62 -->

  <!-- Card 1: Pack -->
  <g transform="translate(62, 80)">
    <rect width="320" height="320" rx="12" ry="12" class="step-card"/>
    <rect width="320" height="3" class="step-rule"/>
    <!-- Pack icon: open box -->
    <g transform="translate(28, 28)">
      <path class="icon" d="M 4 14 L 24 4 L 44 14 L 44 38 L 24 48 L 4 38 Z"/>
      <path class="icon" d="M 4 14 L 24 24 L 44 14"/>
      <line class="icon" x1="24" y1="24" x2="24" y2="48"/>
    </g>
    <text x="28" y="148" class="step-label">PACK</text>
    <text x="28" y="190" class="step-body"><tspan x="28" dy="0">Describe and bundle</tspan><tspan x="28" dy="22">your software into a</tspan><tspan x="28" dy="22">component descriptor.</tspan><tspan x="28" dy="22">One source of truth.</tspan></text>
  </g>

  <!-- Arrow 1 -->
  <line x1="395" y1="240" x2="421" y2="240" class="arrow" marker-end="url(#arrowhead)"/>

  <!-- Card 2: Sign -->
  <g transform="translate(434, 80)">
    <rect width="320" height="320" rx="12" ry="12" class="step-card"/>
    <rect width="320" height="3" class="step-rule"/>
    <!-- Sign icon: shield with checkmark -->
    <g transform="translate(28, 28)">
      <path class="icon" d="M 24 4 L 44 12 L 44 26 C 44 38 36 46 24 50 C 12 46 4 38 4 26 L 4 12 Z"/>
      <path class="icon" d="M 16 26 L 22 32 L 34 20"/>
    </g>
    <text x="28" y="148" class="step-label">SIGN</text>
    <text x="28" y="190" class="step-body"><tspan x="28" dy="0">One signature covers</tspan><tspan x="28" dy="22">every artifact by digest.</tspan><tspan x="28" dy="22">RSA · GPG · Sigstore</tspan><tspan x="28" dy="22">keyless.</tspan></text>
  </g>

  <!-- Arrow 2 -->
  <line x1="767" y1="240" x2="793" y2="240" class="arrow" marker-end="url(#arrowhead)"/>

  <!-- Card 3: Transport -->
  <g transform="translate(806, 80)">
    <rect width="320" height="320" rx="12" ry="12" class="step-card"/>
    <rect width="320" height="3" class="step-rule"/>
    <!-- Transport icon: globe with arrow -->
    <g transform="translate(28, 28)">
      <circle class="icon" cx="24" cy="26" r="20"/>
      <path class="icon" d="M 4 26 L 44 26"/>
      <path class="icon" d="M 24 6 C 14 16 14 36 24 46"/>
      <path class="icon" d="M 24 6 C 34 16 34 36 24 46"/>
    </g>
    <text x="28" y="148" class="step-label">TRANSPORT</text>
    <text x="28" y="190" class="step-body"><tspan x="28" dy="0">Across any boundary.</tspan><tspan x="28" dy="22">Registry to registry, or</tspan><tspan x="28" dy="22">registry to archive —</tspan><tspan x="28" dy="22">signatures travel intact.</tspan></text>
  </g>

  <!-- Arrow 3 -->
  <line x1="1139" y1="240" x2="1165" y2="240" class="arrow" marker-end="url(#arrowhead)"/>

  <!-- Card 4: Deploy -->
  <g transform="translate(1178, 80)">
    <rect width="320" height="320" rx="12" ry="12" class="step-card"/>
    <rect width="320" height="3" class="step-rule"/>
    <!-- Deploy icon: rocket (chunky body, fins, exhaust) -->
    <g transform="translate(28, 28)">
      <!-- Rocket body: rounded capsule -->
      <path class="icon" d="M 24 6 C 30 6 34 14 34 22 L 34 38 C 34 40 32 42 30 42 L 18 42 C 16 42 14 40 14 38 L 14 22 C 14 14 18 6 24 6 Z"/>
      <!-- Window -->
      <circle class="icon" cx="24" cy="20" r="4" fill="#FFFFFF"/>
      <!-- Left fin -->
      <path class="icon" d="M 14 32 L 6 40 L 6 46 L 14 42 Z"/>
      <!-- Right fin -->
      <path class="icon" d="M 34 32 L 42 40 L 42 46 L 34 42 Z"/>
      <!-- Exhaust flame -->
      <path class="icon" d="M 20 42 L 22 50 L 24 46 L 26 50 L 28 42"/>
    </g>
    <text x="28" y="148" class="step-label">DEPLOY</text>
    <text x="28" y="190" class="step-body"><tspan x="28" dy="0">Bring your own GitOps</tspan><tspan x="28" dy="22">(Argo · Flux · KRO) or</tspan><tspan x="28" dy="22">use OCM's Kubernetes</tspan><tspan x="28" dy="22">controllers.</tspan></text>
  </g>

  <!-- Big arrow to target -->
  <line x1="1511" y1="240" x2="1557" y2="240" class="arrow" stroke-width="3" marker-end="url(#arrowhead)"/>

  <!-- Target: Sovereign Cloud (no outer card — cloud with lock inside) -->
  <g transform="translate(1570, 80)">
    <!-- Big cloud silhouette, filled brand blue, scaled to ~240 wide -->
    <g transform="translate(24, 60)">
      <path class="cloud-fill" d="M 56 130 C 28 130 4 110 4 80 C 4 54 26 32 54 36 C 64 14 92 6 112 22 C 132 6 162 14 174 38 C 200 36 222 56 222 80 C 222 108 198 130 174 130 Z"/>
      <!-- Lock centered inside the cloud -->
      <!-- Shackle (arc) -->
      <path class="lock-stroke" d="M 99 66 L 99 54 C 99 42 105 36 113 36 C 121 36 127 42 127 54 L 127 66"/>
      <!-- Lock body -->
      <rect class="lock-fill" x="91" y="66" width="44" height="32" rx="4" ry="4"/>
      <!-- Keyhole on the body, in brand blue -->
      <circle cx="113" cy="78" r="3" fill="#0F6BFF"/>
      <rect x="111" y="78" width="4" height="10" fill="#0F6BFF"/>
    </g>
    <text x="144" y="234" text-anchor="middle" class="target-label">SOVEREIGN</text>
    <text x="144" y="262" text-anchor="middle" class="target-label">CLOUD</text>
    <text x="144" y="296" text-anchor="middle" class="target-body">Verify at destination.</text>
    <text x="144" y="318" text-anchor="middle" class="target-body">No callback upstream.</text>
  </g>
</svg>
