<svg xmlns="http://www.w3.org/2000/svg" viewBox="0 0 1600 700" role="img" aria-label="Sovereign-ready: trust, but verify">
  <defs>
    <linearGradient id="pillarFill" x1="0%" y1="0%" x2="0%" y2="100%">
      <stop offset="0%" stop-color="#ffffff"/>
      <stop offset="100%" stop-color="#f3f4f6"/>
    </linearGradient>
    <filter id="softShadow" x="-20%" y="-20%" width="140%" height="140%">
      <feGaussianBlur in="SourceAlpha" stdDeviation="6"/>
      <feOffset dx="0" dy="4" result="offsetblur"/>
      <feComponentTransfer><feFuncA type="linear" slope="0.16"/></feComponentTransfer>
      <feMerge><feMergeNode/><feMergeNode in="SourceGraphic"/></feMerge>
    </filter>
    <linearGradient id="brandFill" x1="0%" y1="0%" x2="100%" y2="0%">
      <stop offset="0%" stop-color="#5cd6ff"/>
      <stop offset="100%" stop-color="#0f6bff"/>
    </linearGradient>

    <!-- ico-lock uses currentColor so each <use> can paint it via the color attribute. -->
    <symbol id="ico-lock" viewBox="0 0 24 24"><g fill="none" stroke="currentColor" stroke-width="1.6" stroke-linecap="round" stroke-linejoin="round"><path d="M5 13a2 2 0 0 1 2 -2h10a2 2 0 0 1 2 2v6a2 2 0 0 1 -2 2h-10a2 2 0 0 1 -2 -2v-6"/><path d="M11 16a1 1 0 1 0 2 0a1 1 0 0 0 -2 0"/><path d="M8 11v-4a4 4 0 1 1 8 0v4"/></g></symbol>
    <symbol id="ico-shield" viewBox="0 0 24 24"><g fill="none" stroke="#0f6bff" stroke-width="1.6" stroke-linecap="round" stroke-linejoin="round"><path d="M11.46 20.846a12 12 0 0 1 -7.96 -14.846a12 12 0 0 0 8.5 -3a12 12 0 0 0 8.5 3a12 12 0 0 1 -.09 7.06"/><path d="M15 19l2 2l4 -4"/></g></symbol>
    <symbol id="ico-cluster" viewBox="0 0 24 24"><g fill="none" stroke="#0f6bff" stroke-width="1.6" stroke-linecap="round" stroke-linejoin="round"><path d="M3 12l3 -3l3 3l3 -3l3 3l3 -3l3 3"/><path d="M3 19l3 -3l3 3l3 -3l3 3l3 -3l3 3"/><path d="M3 5l3 -3l3 3l3 -3l3 3l3 -3l3 3"/></g></symbol>
    <symbol id="ico-registry" viewBox="0 0 24 24"><g fill="none" stroke="#0f6bff" stroke-width="1.6" stroke-linecap="round" stroke-linejoin="round"><ellipse cx="12" cy="6" rx="8" ry="3"/><path d="M4 6v6a8 3 0 0 0 16 0v-6"/><path d="M4 12v6a8 3 0 0 0 16 0v-6"/></g></symbol>
  </defs>

  <g font-family="Aptos, Inter, sans-serif">

    <!-- Source side (left) -->
    <g transform="translate(80,100)">
      <text x="0" y="40" font-size="20" font-weight="700" fill="#6b7280" letter-spacing="3">SOURCE</text>
      <text x="0" y="78" font-size="32" font-weight="700" fill="#0a3a99">Build · Sign · Pack</text>

      <!-- Source registry -->
      <g transform="translate(0,140)">
        <rect width="320" height="200" rx="14" fill="url(#pillarFill)" stroke="#e8f0ff" stroke-width="2" filter="url(#softShadow)"/>
        <use href="#ico-registry" x="20" y="20" width="56" height="56" stroke="#0f6bff"/>
        <text x="100" y="50" font-size="20" font-weight="700" fill="#0a3a99">Public registry</text>
        <text x="100" y="76" font-size="14" fill="#6b7280">Build artifacts live here.</text>
        <!-- Signed component glyph -->
        <g transform="translate(40,110)">
          <rect width="240" height="70" rx="10" fill="#e8f0ff" stroke="#0f6bff" stroke-width="2"/>
          <circle cx="40" cy="35" r="20" fill="#0f6bff"/>
          <use href="#ico-lock" x="22" y="17" width="36" height="36" color="#ffffff"/>
          <text x="80" y="32" font-size="14" font-weight="700" fill="#0a3a99">github.com/acme/webshop</text>
          <text x="80" y="52" font-size="13" fill="#6b7280">v1.0.0 · signed component</text>
        </g>
      </g>
    </g>

    <!-- Trust boundary line -->
    <g transform="translate(700,80)">
      <line x1="80" y1="40" x2="80" y2="600" stroke="#0f6bff" stroke-width="2.5" stroke-dasharray="10 8"/>
      <text x="80" y="30" text-anchor="middle" font-size="14" font-weight="700" fill="#0f6bff" letter-spacing="3">TRUST BOUNDARY</text>
    </g>

    <!-- Crossing arrow with the component traveling -->
    <g transform="translate(420,260)">
      <line x1="0" y1="40" x2="540" y2="40" stroke="url(#brandFill)" stroke-width="3.5"/>
      <polygon points="540,40 518,28 518,52" fill="#0f6bff"/>
      <!-- Component glyph mid-flight -->
      <g transform="translate(220,4)">
        <rect width="100" height="72" rx="10" fill="#ffffff" stroke="#0f6bff" stroke-width="2.5"/>
        <circle cx="50" cy="36" r="18" fill="#0f6bff"/>
        <use href="#ico-lock" x="34" y="20" width="32" height="32" color="#ffffff"/>
      </g>
      <text x="270" y="100" text-anchor="middle" font-size="15" font-weight="600" fill="#0a3a99">Identity stays · signature stays</text>
    </g>

    <!-- Target side (right) — sovereign / air-gapped -->
    <g transform="translate(900,100)">
      <text x="0" y="40" font-size="20" font-weight="700" fill="#0f6bff" letter-spacing="3">SOVEREIGN TARGET</text>
      <text x="0" y="78" font-size="32" font-weight="700" fill="#0a3a99">Receive · Verify · Run</text>

      <g transform="translate(0,140)">
        <rect width="600" height="380" rx="14" fill="#ffffff" stroke="#0f6bff" stroke-width="2.5" stroke-dasharray="8 6"/>
        <text x="20" y="36" font-size="13" font-weight="700" fill="#0f6bff" letter-spacing="2">AIR-GAPPED</text>

        <!-- Three local consumers, all verifying -->
        <g transform="translate(30,80)">
          <rect width="170" height="120" rx="10" fill="url(#pillarFill)" stroke="#e8f0ff" stroke-width="2"/>
          <use href="#ico-registry" x="62" y="14" width="46" height="46" stroke="#0f6bff"/>
          <text x="85" y="80" text-anchor="middle" font-size="15" font-weight="700" fill="#0a3a99">Local registry</text>
          <text x="85" y="102" text-anchor="middle" font-size="12" fill="#6b7280">verify ✓</text>
        </g>
        <g transform="translate(216,80)">
          <rect width="170" height="120" rx="10" fill="url(#pillarFill)" stroke="#e8f0ff" stroke-width="2"/>
          <use href="#ico-cluster" x="62" y="14" width="46" height="46" stroke="#0f6bff"/>
          <text x="85" y="80" text-anchor="middle" font-size="15" font-weight="700" fill="#0a3a99">K8s cluster</text>
          <text x="85" y="102" text-anchor="middle" font-size="12" fill="#6b7280">verify ✓</text>
        </g>
        <g transform="translate(402,80)">
          <rect width="170" height="120" rx="10" fill="url(#pillarFill)" stroke="#e8f0ff" stroke-width="2"/>
          <use href="#ico-shield" x="62" y="14" width="46" height="46" stroke="#0f6bff"/>
          <text x="85" y="80" text-anchor="middle" font-size="15" font-weight="700" fill="#0a3a99">Auditor</text>
          <text x="85" y="102" text-anchor="middle" font-size="12" fill="#6b7280">verify ✓</text>
        </g>

        <text x="300" y="240" text-anchor="middle" font-size="20" font-weight="700" fill="#0a3a99">Trust, but verify.</text>
        <text x="300" y="270" text-anchor="middle" font-size="16" fill="#6b7280">No callback to source. Day-2 ops included.</text>

        <!-- Bottom accent -->
        <rect x="180" y="300" width="240" height="42" rx="6" fill="#e8f0ff"/>
        <text x="300" y="328" text-anchor="middle" font-size="14" font-weight="700" fill="#0a3a99" letter-spacing="2">SAME SIGNATURE · ANY LOCATION</text>
      </g>
    </g>
  </g>
</svg>
