<svg xmlns="http://www.w3.org/2000/svg" viewBox="0 0 1600 760" role="img" aria-label="Sovereign-ready: trust, but verify">
  <defs>
    <linearGradient id="pillarFill" x1="0%" y1="0%" x2="0%" y2="100%">
      <stop offset="0%" stop-color="#ffffff"/>
      <stop offset="100%" stop-color="#f3f4f6"/>
    </linearGradient>
    <filter id="softShadow" x="-20%" y="-20%" width="140%" height="140%">
      <feGaussianBlur in="SourceAlpha" stdDeviation="6"/>
      <feOffset dx="0" dy="4" result="offsetblur"/>
      <feComponentTransfer><feFuncA type="linear" slope="0.16"/></feComponentTransfer>
      <feMerge><feMergeNode/><feMergeNode in="SourceGraphic"/></feMerge>
    </filter>
    <linearGradient id="brandFill" x1="0%" y1="0%" x2="100%" y2="0%">
      <stop offset="0%" stop-color="#5cd6ff"/>
      <stop offset="100%" stop-color="#0f6bff"/>
    </linearGradient>

    <!-- ico-lock uses currentColor so each <use> can paint it via the color attribute. -->
    <symbol id="ico-lock" viewBox="0 0 24 24"><g fill="none" stroke="currentColor" stroke-width="1.6" stroke-linecap="round" stroke-linejoin="round"><path d="M5 13a2 2 0 0 1 2 -2h10a2 2 0 0 1 2 2v6a2 2 0 0 1 -2 2h-10a2 2 0 0 1 -2 -2v-6"/><path d="M11 16a1 1 0 1 0 2 0a1 1 0 0 0 -2 0"/><path d="M8 11v-4a4 4 0 1 1 8 0v4"/></g></symbol>
    <symbol id="ico-shield" viewBox="0 0 24 24"><g fill="none" stroke="#0f6bff" stroke-width="1.6" stroke-linecap="round" stroke-linejoin="round"><path d="M11.46 20.846a12 12 0 0 1 -7.96 -14.846a12 12 0 0 0 8.5 -3a12 12 0 0 0 8.5 3a12 12 0 0 1 -.09 7.06"/><path d="M15 19l2 2l4 -4"/></g></symbol>
    <symbol id="ico-cluster" viewBox="0 0 24 24"><g fill="none" stroke="#0f6bff" stroke-width="1.6" stroke-linecap="round" stroke-linejoin="round"><path d="M3 12l3 -3l3 3l3 -3l3 3l3 -3l3 3"/><path d="M3 19l3 -3l3 3l3 -3l3 3l3 -3l3 3"/><path d="M3 5l3 -3l3 3l3 -3l3 3l3 -3l3 3"/></g></symbol>
    <symbol id="ico-registry" viewBox="0 0 24 24"><g fill="none" stroke="#0f6bff" stroke-width="1.6" stroke-linecap="round" stroke-linejoin="round"><ellipse cx="12" cy="6" rx="8" ry="3"/><path d="M4 6v6a8 3 0 0 0 16 0v-6"/><path d="M4 12v6a8 3 0 0 0 16 0v-6"/></g></symbol>
  </defs>

  <g font-family="Aptos, Inter, sans-serif">

    <!-- Source side (left) -->
    <g transform="translate(80,100)">
      <text x="0" y="40" font-size="20" font-weight="700" fill="#6b7280" letter-spacing="3">SOURCE</text>
      <text x="0" y="78" font-size="32" font-weight="700" fill="#0a3a99">Build · Sign · Pack</text>

      <!-- Source registry -->
      <g transform="translate(0,140)">
        <rect width="320" height="200" rx="14" fill="url(#pillarFill)" stroke="#e8f0ff" stroke-width="2" filter="url(#softShadow)"/>
        <use href="#ico-registry" x="20" y="20" width="56" height="56" stroke="#0f6bff"/>
        <text x="100" y="50" font-size="20" font-weight="700" fill="#0a3a99">Public registry</text>
        <text x="100" y="76" font-size="14" fill="#6b7280">Build artifacts live here.</text>
        <!-- Signed component glyph (widened so the long URL fits without overflow). -->
        <g transform="translate(15,110)">
          <rect width="290" height="70" rx="10" fill="#e8f0ff" stroke="#0f6bff" stroke-width="2"/>
          <circle cx="40" cy="35" r="20" fill="#0f6bff"/>
          <use href="#ico-lock" x="22" y="17" width="36" height="36" color="#ffffff"/>
          <text x="80" y="32" font-size="14" font-weight="700" fill="#0a3a99">github.com/acme/webshop</text>
          <text x="80" y="52" font-size="13" fill="#6b7280">v1.0.0 · signed component</text>
        </g>
      </g>
    </g>

    <!-- Trust boundary line — centred between source registry (right edge x=400)
         and air-gapped container (left edge x=900); midpoint x=650.
         Vertically extends to the bottom of the air-gapped container (y=720)
         so the boundary visually frames the entire sovereign zone. -->
    <g transform="translate(570,80)">
      <line x1="80" y1="40" x2="80" y2="640" stroke="#0f6bff" stroke-width="2.5" stroke-dasharray="10 8"/>
      <text x="80" y="30" text-anchor="middle" font-size="14" font-weight="700" fill="#0f6bff" letter-spacing="3">TRUST BOUNDARY</text>
    </g>

    <!-- Crossing arrow rendered LAST (after all boxes) so it draws on top
         of the air-gapped container's dashed border. Otherwise the dashed
         line would z-overlap the arrow at x=900 and the connection appears
         to stop at the air-gap edge instead of reaching the component.
         (See block at the bottom of this <g>.) -->

    <!-- Target side (right) — sovereign / air-gapped -->
    <g transform="translate(900,100)">
      <text x="0" y="40" font-size="20" font-weight="700" fill="#0f6bff" letter-spacing="3">SOVEREIGN TARGET</text>
      <text x="0" y="78" font-size="32" font-weight="700" fill="#0a3a99">Receive · Verify · Run</text>

      <g transform="translate(0,140)">
        <rect width="600" height="480" rx="14" fill="#ffffff" stroke="#0f6bff" stroke-width="2.5" stroke-dasharray="8 6"/>
        <text x="20" y="36" font-size="13" font-weight="700" fill="#0f6bff" letter-spacing="2">AIR-GAPPED</text>

        <!-- Receiving component — identical to source-registry component glyph,
             shown landed inside the air-gapped boundary. The arrow above ends
             at this box's left edge so the journey reads source → boundary →
             air-gap as one continuous motion. -->
        <g transform="translate(155,60)">
          <rect width="290" height="70" rx="10" fill="#e8f0ff" stroke="#0f6bff" stroke-width="2"/>
          <circle cx="40" cy="35" r="20" fill="#0f6bff"/>
          <use href="#ico-lock" x="22" y="17" width="36" height="36" color="#ffffff"/>
          <text x="80" y="32" font-size="14" font-weight="700" fill="#0a3a99">github.com/acme/webshop</text>
          <text x="80" y="52" font-size="13" fill="#6b7280">v1.0.0 · signed component</text>
        </g>

        <!-- "Identity stays · signature stays" caption sits to the right of
             the landed component, inside the air-gapped zone. Two short lines
             so it fits the ~145px gap between the component box and the
             air-gap container's right edge. -->
        <text x="460" y="88" font-size="14" font-weight="600" fill="#0a3a99"><tspan x="460" dy="0">Identity stays</tspan><tspan x="460" dy="18">signature stays</tspan></text>

        <!-- Three local consumers, all verifying -->
        <g transform="translate(30,170)">
          <rect width="170" height="120" rx="10" fill="url(#pillarFill)" stroke="#e8f0ff" stroke-width="2"/>
          <use href="#ico-registry" x="62" y="14" width="46" height="46" stroke="#0f6bff"/>
          <text x="85" y="80" text-anchor="middle" font-size="15" font-weight="700" fill="#0a3a99">Local registry</text>
          <text x="85" y="102" text-anchor="middle" font-size="12" fill="#6b7280">verify ✓</text>
        </g>
        <g transform="translate(216,170)">
          <rect width="170" height="120" rx="10" fill="url(#pillarFill)" stroke="#e8f0ff" stroke-width="2"/>
          <use href="#ico-cluster" x="62" y="14" width="46" height="46" stroke="#0f6bff"/>
          <text x="85" y="80" text-anchor="middle" font-size="15" font-weight="700" fill="#0a3a99">K8s cluster</text>
          <text x="85" y="102" text-anchor="middle" font-size="12" fill="#6b7280">verify ✓</text>
        </g>
        <g transform="translate(402,170)">
          <rect width="170" height="120" rx="10" fill="url(#pillarFill)" stroke="#e8f0ff" stroke-width="2"/>
          <use href="#ico-shield" x="62" y="14" width="46" height="46" stroke="#0f6bff"/>
          <text x="85" y="80" text-anchor="middle" font-size="15" font-weight="700" fill="#0a3a99">Auditor</text>
          <text x="85" y="102" text-anchor="middle" font-size="12" fill="#6b7280">verify ✓</text>
        </g>

        <text x="300" y="330" text-anchor="middle" font-size="20" font-weight="700" fill="#0a3a99">Trust, but verify.</text>
        <text x="300" y="360" text-anchor="middle" font-size="16" fill="#6b7280">No callback to source. Day-2 ops included.</text>

        <!-- Bottom accent: light-blue background rect sized to fit the
             ALL-CAPS letter-spaced caption with breathing room on both sides. -->
        <rect x="140" y="400" width="320" height="42" rx="6" fill="#e8f0ff"/>
        <text x="300" y="428" text-anchor="middle" font-size="14" font-weight="700" fill="#0a3a99" letter-spacing="2">SAME SIGNATURE · ANY LOCATION</text>
      </g>
    </g>

    <!-- Crossing arrow rendered LAST so it draws on top of the air-gapped
         container's dashed border. Curved Bezier from the right edge of the
         source-registry component glyph (x=385, y=385) directly to the left
         edge of the landing component inside the air-gapped zone
         (x=1055, y=335). Connects identical component glyphs end-to-end. -->
    <path d="M 385 385 C 600 385, 850 335, 1055 335"
          fill="none" stroke="url(#brandFill)" stroke-width="3.5"/>
    <polygon points="1055,335 1033,323 1033,347" fill="#0f6bff"/>
  </g>
</svg>
