<svg width="221" height="46" viewBox="0 0 221 46" fill="none" xmlns="http://www.w3.org/2000/svg">
<g clip-path="url(#clip0_2303_84)">
<path fill-rule="evenodd" clip-rule="evenodd" d="M203.23 30.6198H213.576L215.288 35.5698H220.796L211.455 9.55481H205.388L197.234 32.2633L192.971 25.0386C194.931 24.5175 196.407 23.5747 197.4 22.2101C198.392 20.8206 198.888 19.2699 198.888 17.5579C198.888 16.0692 198.529 14.7294 197.809 13.5384C197.114 12.3227 196.06 11.3674 194.645 10.6727C193.231 9.95314 191.519 9.59338 189.509 9.59338H179.759V35.5711H184.969V25.448H187.425L193.157 35.5711H199.186L199.185 35.5698H201.518L203.23 30.6198ZM208.403 15.584L212.162 26.4515H204.644L208.403 15.584ZM189.323 21.5402H184.969V13.9106H189.323C190.738 13.9106 191.792 14.2455 192.487 14.9155C193.182 15.5606 193.529 16.4786 193.529 17.6695C193.529 18.8853 193.182 19.8406 192.487 20.5353C191.792 21.2052 190.738 21.5402 189.323 21.5402Z" fill="url(#paint0_linear_2303_84)"/>
<path d="M167.043 35.9053C165.058 35.9053 163.272 35.4711 161.684 34.6027C160.096 33.7095 158.843 32.4565 157.925 30.8438C157.031 29.231 156.585 27.3701 156.585 25.2612C156.585 23.1522 157.044 21.2913 157.962 19.6785C158.905 18.0658 160.182 16.8252 161.795 15.9568C163.408 15.0636 165.207 14.617 167.192 14.617C169.177 14.617 170.976 15.0636 172.588 15.9568C174.201 16.8252 175.466 18.0658 176.384 19.6785C177.327 21.2913 177.799 23.1522 177.799 25.2612C177.799 27.3701 177.315 29.231 176.347 30.8438C175.404 32.4565 174.114 33.7095 172.477 34.6027C170.864 35.4711 169.053 35.9053 167.043 35.9053ZM167.043 31.3648C167.986 31.3648 168.867 31.1415 169.685 30.6949C170.529 30.2235 171.199 29.5287 171.695 28.6107C172.191 27.6927 172.439 26.5762 172.439 25.2612C172.439 23.301 171.918 21.7999 170.876 20.7578C169.859 19.6909 168.606 19.1575 167.117 19.1575C165.629 19.1575 164.376 19.6909 163.358 20.7578C162.366 21.7999 161.87 23.301 161.87 25.2612C161.87 27.2213 162.354 28.7348 163.321 29.8017C164.314 30.8438 165.554 31.3648 167.043 31.3648Z" fill="url(#paint1_linear_2303_84)"/>
<path d="M149.912 18.1526C150.582 17.0609 151.45 16.2049 152.517 15.5846C153.609 14.9643 154.849 14.6542 156.239 14.6542V20.1251H154.862C153.224 20.1251 151.984 20.5097 151.14 21.2789C150.321 22.048 149.912 23.3879 149.912 25.2984V35.5704H144.701V14.9519H149.912V18.1526Z" fill="url(#paint2_linear_2303_84)"/>
<path d="M138.846 12.4956C137.928 12.4956 137.159 12.2103 136.539 11.6396C135.943 11.0441 135.646 10.3122 135.646 9.44376C135.646 8.57536 135.943 7.85582 136.539 7.28515C137.159 6.68968 137.928 6.39194 138.846 6.39194C139.764 6.39194 140.521 6.68968 141.117 7.28515C141.737 7.85582 142.047 8.57536 142.047 9.44376C142.047 10.3122 141.737 11.0441 141.117 11.6396C140.521 12.2103 139.764 12.4956 138.846 12.4956ZM141.414 14.9519V35.5704H136.204V14.9519H141.414Z" fill="url(#paint3_linear_2303_84)"/>
<path d="M134.262 24.8145C134.262 25.5589 134.212 26.2288 134.113 26.8243H119.04C119.164 28.313 119.685 29.4791 120.603 30.3227C121.521 31.1663 122.65 31.5881 123.99 31.5881C125.925 31.5881 127.302 30.7569 128.121 29.0945H133.741C133.145 31.0795 132.004 32.717 130.317 34.0072C128.629 35.2726 126.558 35.9053 124.101 35.9053C122.116 35.9053 120.33 35.4711 118.742 34.6027C117.179 33.7095 115.951 32.4565 115.057 30.8438C114.189 29.231 113.755 27.3701 113.755 25.2612C113.755 23.1274 114.189 21.2541 115.057 19.6413C115.926 18.0286 117.142 16.788 118.705 15.9196C120.268 15.0512 122.067 14.617 124.101 14.617C126.061 14.617 127.811 15.0388 129.349 15.8824C130.912 16.726 132.115 17.9293 132.959 19.4925C133.827 21.0308 134.262 22.8048 134.262 24.8145ZM128.865 23.3258C128.84 21.986 128.356 20.9191 127.414 20.1252C126.471 19.3064 125.317 18.897 123.952 18.897C122.662 18.897 121.571 19.294 120.677 20.0879C119.809 20.8571 119.275 21.9364 119.077 23.3258H128.865Z" fill="url(#paint4_linear_2303_84)"/>
<path d="M96.9425 17.9293C97.6124 16.9865 98.5304 16.2049 99.6966 15.5846C100.888 14.9395 102.24 14.617 103.753 14.617C105.515 14.617 107.103 15.0512 108.517 15.9196C109.956 16.788 111.085 18.0286 111.904 19.6413C112.747 21.2293 113.169 23.0777 113.169 25.1867C113.169 27.2957 112.747 29.169 111.904 30.8065C111.085 32.4193 109.956 33.6723 108.517 34.5655C107.103 35.4587 105.515 35.9053 103.753 35.9053C102.24 35.9053 100.9 35.5952 99.7338 34.9749C98.5924 34.3546 97.662 33.573 96.9425 32.6302V45.3958H91.732V14.9519H96.9425V17.9293ZM107.847 25.1867C107.847 23.9461 107.587 22.8792 107.066 21.986C106.569 21.068 105.899 20.3733 105.056 19.9018C104.237 19.4304 103.344 19.1947 102.376 19.1947C101.433 19.1947 100.54 19.4428 99.6966 19.9391C98.8778 20.4105 98.2079 21.1052 97.6868 22.0232C97.1906 22.9413 96.9425 24.0206 96.9425 25.2612C96.9425 26.5017 97.1906 27.581 97.6868 28.4991C98.2079 29.4171 98.8778 30.1242 99.6966 30.6205C100.54 31.0919 101.433 31.3276 102.376 31.3276C103.344 31.3276 104.237 31.0795 105.056 30.5832C105.899 30.087 106.569 29.3799 107.066 28.4618C107.587 27.5438 107.847 26.4521 107.847 25.1867Z" fill="url(#paint5_linear_2303_84)"/>
<path d="M82.881 30.6204H72.5346L70.8226 35.5704H65.3516L74.6932 9.55542H80.7596L90.1012 35.5704H84.593L82.881 30.6204ZM81.4667 26.4521L77.7078 15.5846L73.9488 26.4521H81.4667Z" fill="url(#paint6_linear_2303_84)"/>
<path d="M45.6597 14.4335C45.721 16.7565 45.2341 18.9671 44.316 20.9426C47.2743 22.3436 49.3143 25.3068 49.3143 28.7359C49.3143 33.5156 45.3507 37.3903 40.4614 37.3903H28.4517C27.9083 38.4571 27.2235 39.4743 26.3955 40.4158C25.0459 41.9504 23.4449 43.137 21.7072 43.9677H40.4614C49.0666 43.9677 56.0426 37.1482 56.0426 28.7359C56.0426 22.1049 51.7083 16.4636 45.6579 14.3718L45.6597 14.4335Z" fill="#02E3F0"/>
<path d="M37.0037 12.2066C38.5109 12.4288 40.1008 11.963 41.261 10.8091C41.9835 10.0906 42.4377 9.20613 42.6236 8.27911C43.6727 10.2403 44.2709 12.4772 44.2801 14.8531C44.3099 22.6572 37.9732 29.0078 30.1264 29.0375C26.1673 29.0525 22.5803 27.4555 19.9939 24.8669L24.7779 20.1088C26.1338 21.4737 28.0191 22.3165 30.1007 22.3087C34.2109 22.2931 37.5301 18.9666 37.5145 14.8787C37.5108 13.9358 37.3301 13.0348 37.0037 12.2066Z" fill="url(#paint7_linear_2303_84)"/>
<path d="M9.65 35.5167C6.64999 32.753 6.4531 28.0947 9.21756 25.0901C11.9801 22.0876 16.6585 21.8687 19.692 24.5903L24.2595 19.6262C18.4694 14.3957 9.51149 14.8034 4.22637 20.5475C-1.06064 26.2937 -0.674052 35.2083 5.08253 40.4808L9.65 35.5167Z" fill="url(#paint8_linear_2303_84)"/>
<path d="M19.6742 24.5743C22.6743 27.3379 22.8712 31.9963 20.1067 35.0009C17.3441 38.0034 12.6657 38.2223 9.63221 35.5007L5.06471 40.4648C10.8548 45.6953 19.8128 45.2876 25.0979 39.5435C30.3849 33.7974 29.9983 24.8827 24.2417 19.6102L19.6742 24.5743Z" fill="#10BAF4"/>
<path d="M15.975 12.5521C15.2056 17.2306 16.8412 21.7477 19.9796 24.8555L24.764 20.0971C23.1106 18.4686 22.2477 16.0958 22.6519 13.6383C23.3153 9.60386 27.1412 6.86831 31.1976 7.52813C32.8131 7.79084 34.2213 8.55239 35.2894 9.62885C35.3076 9.64797 35.3272 9.66552 35.3459 9.6841C36.667 10.998 38.809 10.998 40.13 9.6841C41.4091 8.41197 41.4497 6.37478 40.2521 5.05396L40.2853 5.08691C40.2642 5.06494 40.2433 5.04315 40.2221 5.02135C40.1922 4.98925 40.1614 4.95731 40.13 4.92605C40.119 4.91507 40.1076 4.90409 40.0965 4.8931C38.0581 2.84068 35.3713 1.38876 32.2897 0.887441C24.5457 -0.372193 17.2413 4.85036 15.975 12.5521Z" fill="url(#paint9_radial_2303_84)"/>
</g>
<defs>
<linearGradient id="paint0_linear_2303_84" x1="60.6693" y1="23.0479" x2="220.796" y2="23.0479" gradientUnits="userSpaceOnUse">
<stop stop-color="#0C52B3"/>
<stop offset="1" stop-color="#00BEC9"/>
</linearGradient>
<linearGradient id="paint1_linear_2303_84" x1="60.6694" y1="23.0479" x2="220.796" y2="23.0479" gradientUnits="userSpaceOnUse">
<stop stop-color="#0C52B3"/>
<stop offset="1" stop-color="#00BEC9"/>
</linearGradient>
<linearGradient id="paint2_linear_2303_84" x1="60.6693" y1="23.0479" x2="220.796" y2="23.0479" gradientUnits="userSpaceOnUse">
<stop stop-color="#0C52B3"/>
<stop offset="1" stop-color="#00BEC9"/>
</linearGradient>
<linearGradient id="paint3_linear_2303_84" x1="60.6693" y1="23.0479" x2="220.796" y2="23.0479" gradientUnits="userSpaceOnUse">
<stop stop-color="#0C52B3"/>
<stop offset="1" stop-color="#00BEC9"/>
</linearGradient>
<linearGradient id="paint4_linear_2303_84" x1="60.6693" y1="23.0479" x2="220.796" y2="23.0479" gradientUnits="userSpaceOnUse">
<stop stop-color="#0C52B3"/>
<stop offset="1" stop-color="#00BEC9"/>
</linearGradient>
<linearGradient id="paint5_linear_2303_84" x1="60.6693" y1="23.0479" x2="220.796" y2="23.0479" gradientUnits="userSpaceOnUse">
<stop stop-color="#0C52B3"/>
<stop offset="1" stop-color="#00BEC9"/>
</linearGradient>
<linearGradient id="paint6_linear_2303_84" x1="60.6693" y1="23.0479" x2="220.796" y2="23.0479" gradientUnits="userSpaceOnUse">
<stop stop-color="#0C52B3"/>
<stop offset="1" stop-color="#00BEC9"/>
</linearGradient>
<linearGradient id="paint7_linear_2303_84" x1="44" y1="10.5" x2="25" y2="22.5" gradientUnits="userSpaceOnUse">
<stop stop-color="#01ABE7"/>
<stop offset="1" stop-color="#071E59"/>
</linearGradient>
<linearGradient id="paint8_linear_2303_84" x1="8.5" y1="36" x2="19.5" y2="20.5" gradientUnits="userSpaceOnUse">
<stop stop-color="#10BAF4"/>
<stop offset="1" stop-color="#071E59"/>
</linearGradient>
<radialGradient id="paint9_radial_2303_84" cx="0" cy="0" r="1" gradientUnits="userSpaceOnUse" gradientTransform="translate(22 23.5) rotate(-67.8061) scale(38.1986 59.8025)">
<stop offset="0.0185385" stop-color="#00C2FF"/>
<stop offset="0.583814" stop-color="#063C77"/>
</radialGradient>
<clipPath id="clip0_2303_84">
<rect width="221" height="46" fill="white"/>
</clipPath>
</defs>
</svg>
