<?xml version="1.0" encoding="utf-8"?>
<!-- Generator: Adobe Illustrator 23.1.0, SVG Export Plug-In . SVG Version: 6.00 Build 0)  -->
<svg version="1.1" id="Ebene_1" xmlns="http://www.w3.org/2000/svg" xmlns:xlink="http://www.w3.org/1999/xlink" x="0px" y="0px"
	 viewBox="0 0 354.9 201.11" style="enable-background:new 0 0 354.9 201.11;" xml:space="preserve">
<style type="text/css">
	.st0{fill:#FFFFFF;}
	.st1{fill-rule:evenodd;clip-rule:evenodd;fill:#989898;}
	.st2{fill-rule:evenodd;clip-rule:evenodd;fill:#FF0000;}
	.st3{fill-rule:evenodd;clip-rule:evenodd;fill:#98989B;}
	.st4{fill:#98989B;}
</style>
<g>
	<rect class="st0" width="354.9" height="201.11"/>
	<path class="st1" d="M75.45,85.03c0,3.43-2.36,5.68-6.43,5.68H50.04V79.35h18.97C73.09,79.35,75.45,81.6,75.45,85.03 M85.74,106.04
		c0-6.65-3.75-9.76-6.75-11.15c2.47-1.18,6.11-4.72,6.11-10.29c0-8.47-5.68-13.94-15.33-13.94H40.28v49.63h30.34
		C79.41,120.3,85.74,115.26,85.74,106.04 M76.09,105.5c0,3.32-2.04,6.11-6.43,6.11H50.04V99.5h19.62
		C74.05,99.5,76.09,102.18,76.09,105.5"/>
	<path class="st1" d="M123.9,115.26c3.32,3.43,8.15,5.47,13.51,5.47c10.18,0,18.22-6.97,18.22-17.47V70.66h-9.54v32.27
		c0,5.68-3.43,9.11-8.68,9.11c-5.15,0-8.47-3-8.47-8.79l-0.11-32.59h-9.54v32.27c0,5.68-3.43,9.11-8.68,9.11
		c-5.15,0-8.58-3.43-8.58-9.11V70.66h-9.65v32.59c0,10.51,8.15,17.47,18.23,17.47C115.86,120.73,120.58,118.48,123.9,115.26"/>
	<rect x="163.99" y="70.66" class="st1" width="9.65" height="49.53"/>
	<path class="st2" d="M113.93,49.76c0-5.36,4.39-9.65,9.65-9.65H229.5c5.36,0,9.65,4.29,9.65,9.65v0.32c0,5.36-4.29,9.65-9.65,9.65
		H123.58c-5.25,0-9.65-4.29-9.65-9.65V49.76z"/>
	<path class="st1" d="M245.04,49.76c0-5.36,4.29-9.65,9.65-9.65h12.87c5.36,0,9.65,4.29,9.65,9.65v0.32c0,5.36-4.29,9.65-9.65,9.65
		h-12.87c-5.36,0-9.65-4.29-9.65-9.65V49.76z"/>
	<path class="st3" d="M282.45,49.76c0-5.36,4.29-9.65,9.65-9.65h12.86c5.36,0,9.65,4.29,9.65,9.65v0.32c0,5.36-4.29,9.65-9.65,9.65
		H292.1c-5.36,0-9.65-4.29-9.65-9.65V49.76z"/>
	<path class="st4" d="M43.55,166.69v-25.73h-3.44v25.73H43.55L43.55,166.69z M61.39,143.28v-2.32H47.7v2.32h5.12v23.41h3.44v-23.41
		H61.39L61.39,143.28z M83.41,148.59v-2.06h-3.51v-3.22c0-2.84,1.53-3.78,3.51-3.89v-2.09c-4.41-0.19-6.81,2.39-6.81,6.36v2.84
		h-2.32v2.06h2.32v18.1h3.29v-18.1H83.41L83.41,148.59z M98.96,142.05c0-0.9-0.78-1.61-1.68-1.61c-0.93,0-1.72,0.71-1.72,1.61
		c0,0.86,0.79,1.57,1.72,1.57C98.18,143.62,98.96,142.95,98.96,142.05L98.96,142.05z M92.79,142.05c0-0.9-0.75-1.61-1.68-1.61
		c-0.93,0-1.68,0.71-1.68,1.61c0,0.86,0.75,1.57,1.68,1.57C92.05,143.62,92.79,142.95,92.79,142.05L92.79,142.05z M101.32,165.49
		v-18.96h-3.29v17.42c-0.93,0.56-2.06,0.82-3.63,0.82c-2.77,0-4.04-1.8-4.04-4.15v-14.1h-3.29v13.98c0,4.04,2.09,6.58,7.14,6.58
		C97.47,167.1,99.82,166.35,101.32,165.49L101.32,165.49z M115.3,146.2c-4.79-0.11-6.69,0.41-8.67,1.42v19.07h3.29v-17.61
		c1.08-0.71,2.95-0.86,4.6-0.37L115.3,146.2L115.3,146.2z M146.56,153.57c0-7.96-3.59-12.98-10.69-12.98c-2.8,0-5.16,0.6-6.66,1.42
		v23.67c1.35,0.79,3.85,1.38,6.81,1.38C143.31,167.06,146.56,161.49,146.56,153.57L146.56,153.57z M143.01,153.53
		c0,7.25-1.98,11.1-7.18,11.1c-1.31,0-2.47-0.19-3.22-0.49v-20.83c0.9-0.37,1.83-0.52,3.18-0.52
		C140.69,142.8,143.01,146.46,143.01,153.53L143.01,153.53z M166.23,156.03c0.07-6.73-2.84-9.87-7.66-9.87
		c-4.75,0-8.11,3.55-8.11,10.39c0,7.18,3.7,10.51,8.97,10.51c2.73,0,4.86-0.64,6.1-1.38l-0.86-2.17c-1.05,0.6-2.69,1.16-4.97,1.16
		c-3.63,0-5.76-2.24-6.13-6.81L166.23,156.03L166.23,156.03z M163.09,154.65l-9.65,1.46c-0.07-5.46,2.09-7.82,5.01-7.82
		C161.33,148.29,163.09,150.09,163.09,154.65L163.09,154.65z M185,165.49v-18.96h-3.29v17.42c-0.93,0.56-2.06,0.82-3.63,0.82
		c-2.77,0-4.04-1.8-4.04-4.15v-14.1h-3.29v13.98c0,4.04,2.09,6.58,7.14,6.58C181.15,167.1,183.51,166.35,185,165.49L185,165.49z
		 M198.24,166.58v-2.09c-0.34,0.07-0.64,0.15-0.97,0.15c-1.83,0-2.54-1.31-2.54-2.92v-13.13h3.52v-2.06h-3.52v-5.65l-3.29,1.01v4.64
		h-2.32v2.06h2.32v13.2c0,2.47,1.35,5.09,5.01,5.09C197.27,166.88,197.86,166.69,198.24,166.58L198.24,166.58z M213.01,161.08
		c0-2.32-0.97-4.41-4.9-5.91c-1.94-0.75-3.37-1.68-3.37-3.63c0-1.72,1.16-3.18,3.37-3.18c1.57,0,2.77,0.67,3.37,1.12l0.86-1.98
		c-1.05-0.71-2.65-1.38-4.71-1.38c-3.67,0-6.02,2.54-6.02,5.53c0,2.09,0.79,4.19,4.71,5.65c2.21,0.82,3.33,1.76,3.33,3.85
		c0,1.94-1.5,3.48-3.74,3.48c-1.79,0-3.21-0.6-3.93-1.2l-0.9,2.17c1.08,0.82,2.99,1.38,5.16,1.38
		C210.35,166.99,213.01,164.15,213.01,161.08L213.01,161.08z M228.82,165.72l-0.82-2.06c-0.75,0.52-1.68,0.97-3.07,0.97
		c-3.25,0-4.97-3.33-4.97-8.15c0-4.71,1.42-8.04,5.08-8.04c1.5,0,2.39,0.52,2.99,0.97l0.79-1.91c-0.64-0.56-1.98-1.35-4.45-1.35
		c-4.49,0-7.74,3.81-7.74,10.43c0,6.51,3.25,10.47,7.66,10.47C226.54,167.06,228.04,166.43,228.82,165.72L228.82,165.72z
		 M247.41,166.69v-14.4c0-2.84-1.57-5.94-6.69-5.94c-1.5,0-2.95,0.37-4.64,1.23v-10.25h-3.29v29.35h3.29v-17.24
		c1.23-0.75,2.43-1.01,3.93-1.01c3.21,0,4.11,1.87,4.11,3.96v14.28H247.41L247.41,166.69z M256.23,166.69v-29.35h-3.29v29.35H256.23
		L256.23,166.69z M275.15,165.64v-12.94c0-4.94-3.29-6.54-7.03-6.54c-2.77,0-5.01,0.86-6.17,1.49l0.79,1.95
		c1.12-0.56,2.92-1.27,4.86-1.27c2.58,0,4.45,0.9,4.45,4v1.23c-6.24,0.64-11.26,2.21-11.26,7.55c0,3.66,2.43,5.95,7.67,5.95
		C271.26,167.06,273.62,166.5,275.15,165.64L275.15,165.64z M272.05,164.48c-0.82,0.45-2.06,0.67-3.33,0.67
		c-2.99,0-4.79-1.2-4.79-4.11c0-4.08,3.03-5.16,8.11-5.8V164.48L272.05,164.48z M295.08,166.69v-14.55c0-2.88-1.64-5.98-7.25-5.98
		c-3.21,0-5.57,0.56-7.37,1.42v19.11h3.29V149c1.05-0.45,1.94-0.71,3.82-0.71c3.44,0,4.22,2.06,4.22,3.93v14.47H295.08
		L295.08,166.69z M314.79,165.64v-28.31h-3.25v9.46c-1.08-0.3-2.06-0.45-3.18-0.45c-5.2,0-8.75,3.89-8.75,10.58
		c0,6.09,3.1,10.13,8.86,10.13C311.27,167.06,313.44,166.47,314.79,165.64L314.79,165.64z M311.53,164.33
		c-0.63,0.41-1.57,0.56-2.92,0.56c-4.11,0-5.76-3.48-5.76-8.23c0-4.38,1.5-8.41,6.17-8.41c0.86,0,1.68,0.15,2.51,0.37V164.33
		L311.53,164.33z"/>
</g>
</svg>
